<svg width="1485" height="1324" viewBox="0 0 1485 1324" fill="none" xmlns="http://www.w3.org/2000/svg">
<path fill-rule="evenodd" clip-rule="evenodd" d="M1270.78 219.374C1270.78 219.374 1262.16 208.453 1217.42 208.702C1172.68 208.951 673.152 208.702 673.152 208.702L785.207 0.603641C785.207 0.603641 959.672 0.581112 1030.66 0.603641C1105.62 0.627355 1153.45 24.7404 1201.41 101.989C1237.8 160.593 1247.72 177.91 1270.78 219.374Z" fill="#FB6707"/>
<path fill-rule="evenodd" clip-rule="evenodd" d="M593.117 0.603973C593.117 0.603973 339.519 448.63 310.309 502.182C281.099 555.735 262.128 570.876 262.288 619.573C262.448 668.27 272.426 742.863 379.679 742.299C379.679 742.299 906.38 742.833 955.955 742.299C997.911 741.843 1009.96 749.556 1009.32 763.642C1008.67 777.728 990.073 804.679 966.632 843.683C956.856 859.939 945.515 878.863 934.612 897.04C919.37 922.461 907.886 945.084 875.92 945.061C875.92 945.061 277.453 945.411 214.267 945.061C138.358 944.646 108.733 931.075 59.5224 843.683C10.3115 756.291 1.42935 747.398 0.829974 683.601C0.230601 619.804 16.6668 603.744 59.5253 528.861C102.384 453.978 246.456 200.972 299.641 112.661C352.825 24.3495 411.601 0.579666 486.401 0.603973H593.117Z" fill="#FB6707"/>
<path fill-rule="evenodd" clip-rule="evenodd" d="M214.267 1105.18C214.267 1105.18 222.875 1116.1 267.624 1115.85C312.372 1115.6 811.886 1115.85 811.886 1115.85L699.831 1323.91C699.831 1323.91 525.366 1323.93 454.378 1323.91C379.424 1323.89 331.593 1299.78 283.631 1222.55C247.242 1163.95 237.323 1146.64 214.267 1105.18Z" fill="#FB6707"/>
<path fill-rule="evenodd" clip-rule="evenodd" d="M891.926 1323.91C891.926 1323.91 1145.52 875.97 1174.73 822.423C1203.93 768.877 1222.91 753.741 1222.76 705.056C1222.6 656.371 1212.62 581.79 1105.36 582.354C1105.36 582.354 578.657 581.814 529.083 582.354C487.133 582.804 475.08 575.091 475.726 561.011C476.372 546.931 494.97 519.98 518.411 480.988C528.182 464.732 539.529 445.808 550.425 427.637C565.674 402.215 577.157 379.598 609.124 379.622C609.124 379.622 1207.59 379.272 1270.78 379.622C1346.69 380.037 1376.31 393.607 1425.52 480.988C1474.72 568.368 1483.61 577.249 1484.21 641.034C1484.82 704.819 1468.38 720.879 1425.52 795.751C1382.65 870.622 1238.59 1123.58 1185.4 1211.88C1132.21 1300.18 1073.44 1323.93 998.645 1323.91H891.926Z" fill="#FB6707"/>
</svg>
